<svg width="39" height="39" viewBox="0 0 39 39" fill="none" xmlns="http://www.w3.org/2000/svg">
<path d="M28.431 23.372C27.9423 23.1246 25.5621 21.9631 25.1172 21.7973C24.6724 21.6389 24.3494 21.556 24.0252 22.0447C23.7083 22.5213 22.7748 23.6121 22.4896 23.9302C22.2044 24.2483 21.9241 24.2726 21.4427 24.0569C20.954 23.8095 19.3927 23.3013 17.539 21.6389C16.0912 20.3507 15.1271 18.7639 14.8407 18.2752C14.5555 17.7925 14.809 17.5195 15.0503 17.2782C15.2722 17.0564 15.5391 16.72 15.7865 16.4275C16.0217 16.135 16.0972 15.9388 16.2691 15.6219C16.4275 15.2795 16.3459 15.0126 16.2252 14.7712C16.1046 14.5299 15.1332 12.1375 14.7274 11.1845C14.3398 10.2387 13.934 10.3594 13.6354 10.3594C13.3563 10.3338 13.0321 10.3338 12.7091 10.3338C12.3862 10.3338 11.8584 10.4544 11.4136 10.9176C10.9688 11.4063 9.71222 12.5738 9.71222 14.9358C9.71222 17.3038 11.4514 19.5951 11.6927 19.9375C11.9401 20.2544 15.1137 25.1294 19.9826 27.2244C21.1441 27.7132 22.046 28.0057 22.7504 28.247C23.9119 28.615 24.9722 28.5638 25.8095 28.4432C26.7357 28.2908 28.6784 27.2683 29.0855 26.1263C29.4986 24.9771 29.4986 24.0252 29.378 23.8095C29.2573 23.5877 28.9404 23.467 28.4517 23.2513L28.431 23.372ZM19.6012 35.3438H19.5756C16.6932 35.3438 13.8438 34.5625 11.3551 33.1025L10.7713 32.7539L4.67756 34.3407L6.31556 28.4115L5.92191 27.8021C4.31559 25.244 3.45881 22.2922 3.45881 19.2587C3.45881 10.4106 10.7018 3.19312 19.6133 3.19312C23.9302 3.19312 27.9801 4.875 31.0269 7.92188C34.0738 10.9432 35.7557 14.9931 35.7557 19.2843C35.7435 28.1263 28.5066 35.3438 19.6072 35.3438H19.6012ZM33.3438 5.60503C29.6363 2.02434 24.7613 0 19.5756 0C8.87981 0 0.170625 8.67141 0.164531 19.3282C0.164531 22.7309 1.053 26.0508 2.75437 28.9892L0 39L10.296 36.3151C13.1333 37.8446 16.3264 38.6636 19.5768 38.6697H19.5829C30.2847 38.6697 38.9939 29.9983 39 19.3342C39 14.1741 36.9878 9.31734 33.3194 5.66719L33.3438 5.60503Z" fill="#4B6F75"/>
</svg>
